# xmcd
#
# Track frame offsets: 
#        150
#        17861
#        34342
#        51482
#        68537
#        87823
#        103096
#        123209
#        139017
#        152284
#        166498
#        183733
#        199128
#        226814
#
# Disc length: 3428 seconds
#
# Revision: 2
# Processed by: cddbd v1.5.2PL0 Copyright (c) Steve Scherf et al.
# Submitted via: ExactAudioCopy v0.95b3
#
DISCID=b70d620e
DTITLE=Kaja Paschalska - Kaja Paschalska
DYEAR=2001
DGENRE=country
TTITLE0=Przyjaciel od zaraz
TTITLE1=Tylko ty
TTITLE2=Ten stan
TTITLE3=Dla mamy
TTITLE4=Monday monday
TTITLE5=W duszy masz klucz
TTITLE6=?
TTITLE7=Wiatru brak
TTITLE8=Niewidzialna
TTITLE9=Za soba
TTITLE10=Picture of lion
TTITLE11=Trust in yourself
TTITLE12=Only you
TTITLE13=Przyjaciel od zaraz - video
EXTD=
EXTT0=
EXTT1=
EXTT2=
EXTT3=
EXTT4=
EXTT5=
EXTT6=
EXTT7=
EXTT8=
EXTT9=
EXTT10=
EXTT11=
EXTT12=
EXTT13=
PLAYORDER=
